<?xml version="1.0" encoding="UTF-8" standalone="no"?>
<svg
   xmlns:dc="http://purl.org/dc/elements/1.1/"
   xmlns:cc="http://creativecommons.org/ns#"
   xmlns:rdf="http://www.w3.org/1999/02/22-rdf-syntax-ns#"
   xmlns:svg="http://www.w3.org/2000/svg"
   xmlns="http://www.w3.org/2000/svg"
   viewBox="0 0 2350 270.00001"
   height="270"
   width="2350"
   xml:space="preserve"
   id="svg10"
   version="1.1"><metadata
     id="metadata16"><rdf:RDF><cc:Work
         rdf:about=""><dc:format>image/svg+xml</dc:format><dc:type
           rdf:resource="http://purl.org/dc/dcmitype/StillImage" /><dc:title></dc:title></cc:Work></rdf:RDF></metadata><defs
     id="defs14"><clipPath
       id="clipPath78"
       clipPathUnits="userSpaceOnUse"><path
         id="path76"
         d="M 0,1600 H 2560 V 0 H 0 Z" /></clipPath><clipPath
       id="clipPath172"
       clipPathUnits="userSpaceOnUse"><path
         id="path170"
         d="M 0,1600 H 2560 V 0 H 0 Z" /></clipPath></defs><g
     transform="matrix(1.3333333,0,0,-1.3333333,0,2133.3333)"
     id="g18"><path
       id="path22"
       style="fill:#e9f50d;fill-opacity:1;fill-rule:nonzero;stroke:none"
       d="M 0,0 H 1 V 1600 H 0 Z" /><text
       y="-1406.9191"
       x="10.100061"
       id="text50"
       style="font-variant:normal;font-weight:500;font-stretch:normal;font-size:262px;font-family:Megrim;-inkscape-font-specification:Megrim;writing-mode:lr-tb;fill:#ffffff;fill-opacity:1;fill-rule:nonzero;stroke:none"
       transform="scale(1,-1)"><tspan
         id="tspan48"
         y="-1406.9191"
         x="10.100061 148.96005 310.87604 461.78802 539.07806 700.99402 844.04602 981.85803 1119.6699 1262.7219 1340.012 1483.064 1620.876">THE HAPPY APP</tspan></text><g
       transform="translate(628.2705,897.4434)"
       id="g56"><path
         id="path58"
         style="fill:none;stroke:#ffffff;stroke-width:1;stroke-linecap:butt;stroke-linejoin:miter;stroke-miterlimit:10;stroke-dasharray:none;stroke-opacity:1"
         d="M 0,0 H -7.859 V -83.84 H -102.18 V 0 h -7.859 v -183.4 h 7.859 v 91.7 h 94.321 v -91.7 H 0 Z" /></g><g
       transform="translate(774.2041,817.7954)"
       id="g60"><path
         id="path62"
         style="fill:none;stroke:#ffffff;stroke-width:1;stroke-linecap:butt;stroke-linejoin:miter;stroke-miterlimit:10;stroke-dasharray:none;stroke-opacity:1"
         d="M 0,0 H -58.688 L 21.484,79.648 H -94.058 v -183.4 H 15.458 v 7.86 H -86.198 V 71.788 H 2.358 L -77.814,-7.86 H 0 Z" /></g><g
       transform="translate(1018.3838,897.4434)"
       id="g64"><path
         id="path66"
         style="fill:none;stroke:#ffffff;stroke-width:1;stroke-linecap:butt;stroke-linejoin:miter;stroke-miterlimit:10;stroke-dasharray:none;stroke-opacity:1"
         d="M 0,0 H -7.859 V -83.84 H -102.18 V 0 h -7.859 v -183.4 h 7.859 v 91.7 h 94.321 v -91.7 H 0 Z" /></g><g
       transform="translate(1074.9756,714.0435)"
       id="g68"><path
         id="path70"
         style="fill:none;stroke:#ffffff;stroke-width:1;stroke-linecap:butt;stroke-linejoin:miter;stroke-miterlimit:10;stroke-dasharray:none;stroke-opacity:1"
         d="M 0,0 H 107.682 L 40.872,183.662 -25.938,0 h 8.383 L 40.872,160.606 96.416,7.86 H 0 Z" /></g></g></svg>
