<?xml version="1.0" encoding="UTF-8" standalone="no"?>
<svg
   xmlns:dc="http://purl.org/dc/elements/1.1/"
   xmlns:cc="http://creativecommons.org/ns#"
   xmlns:rdf="http://www.w3.org/1999/02/22-rdf-syntax-ns#"
   xmlns:svg="http://www.w3.org/2000/svg"
   xmlns="http://www.w3.org/2000/svg"
   viewBox="0 0 2350 270.00001"
   height="270"
   width="2350"
   xml:space="preserve"
   id="svg10"
   version="1.1"><metadata
     id="metadata16"><rdf:RDF><cc:Work
         rdf:about=""><dc:format>image/svg+xml</dc:format><dc:type
           rdf:resource="http://purl.org/dc/dcmitype/StillImage" /><dc:title></dc:title></cc:Work></rdf:RDF></metadata><defs
     id="defs14"><clipPath
       id="clipPath78"
       clipPathUnits="userSpaceOnUse"><path
         id="path76"
         d="M 0,1600 H 2560 V 0 H 0 Z" /></clipPath><clipPath
       id="clipPath172"
       clipPathUnits="userSpaceOnUse"><path
         id="path170"
         d="M 0,1600 H 2560 V 0 H 0 Z" /></clipPath></defs><g
     transform="matrix(1.3333333,0,0,-1.3333333,0,2133.3333)"
     id="g18"><path
       id="path22"
       style="fill:#e9f50d;fill-opacity:1;fill-rule:nonzero;stroke:none"
       d="M 0,0 H 1 V 1600 H 0 Z" /><g
       aria-label="THE HAPPY APP"
       transform="scale(1,-1)"
       id="text50"
       style="font-variant:normal;font-weight:500;font-stretch:normal;font-size:262px;font-family:Megrim;-inkscape-font-specification:Megrim;writing-mode:lr-tb;fill:#ffffff;fill-opacity:1;fill-rule:nonzero;stroke:none"><path
         d="m 145.03006,-1590.3191 v 7.86 H 83.460061 v 175.54 h -7.86 v -175.54 h -61.57 v -7.86 z"
         id="path31" /><path
         d="m 284.93805,-1406.9191 h -7.86 v -91.7 h -94.32 v 91.7 h -7.86 v -183.4 h 7.86 v 83.84 h 94.32 v -83.84 h 7.86 z"
         id="path33" /><path
         d="m 430.87204,-1502.8111 h -77.814 l 80.172,-79.648 h -88.556 v 167.68 h 101.656 v 7.86 h -109.516 v -183.4 h 115.542 l -80.172,79.648 h 58.688 z"
         id="path35" /><path
         d="m 675.05606,-1406.9191 h -7.86 v -91.7 h -94.32 v 91.7 h -7.86 v -183.4 h 7.86 v 83.84 h 94.32 v -83.84 h 7.86 z"
         id="path37" /><path
         d="m 731.64802,-1414.7791 h 96.416 l -55.544,-152.746 -58.426,160.606 h -8.384 l 66.81,-183.662 66.81,183.662 h -107.682 z"
         id="path39" /><path
         d="m 934.96002,-1494.9511 -3.93,-6.812 14.672,-8.384 q 18.078,-9.956 18.078,-31.702 0,-40.61 -61.832,-40.61 h -24.104 v 175.54 h -7.86 v -183.4 h 31.964 q 34.584,0 52.138,12.838 17.554,12.576 17.554,35.632 0,26.2 -22.008,38.514 z"
         id="path41" /><path
         d="m 1072.772,-1494.9511 -3.93,-6.812 14.672,-8.384 q 18.078,-9.956 18.078,-31.702 0,-40.61 -61.832,-40.61 h -24.104 v 175.54 h -7.86 v -183.4 h 31.964 q 34.584,0 52.138,12.838 17.554,12.576 17.554,35.632 0,26.2 -22.008,38.514 z"
         id="path43" /><path
         d="m 1154.5159,-1590.3191 h 106.11 l -65.5,104.8 v 78.6 h -7.86 v -78.6 l -65.5,-104.8 h 9.17 l 60.26,96.154 55.282,-88.294 h -91.962 z"
         id="path45" /><path
         d="m 1370.666,-1414.7791 h 96.416 l -55.544,-152.746 -58.426,160.606 h -8.384 l 66.81,-183.662 66.81,183.662 h -107.682 z"
         id="path47" /><path
         d="m 1573.978,-1494.9511 -3.93,-6.812 14.672,-8.384 q 18.078,-9.956 18.078,-31.702 0,-40.61 -61.832,-40.61 h -24.104 v 175.54 h -7.86 v -183.4 h 31.964 q 34.584,0 52.138,12.838 17.554,12.576 17.554,35.632 0,26.2 -22.008,38.514 z"
         id="path49" /><path
         d="m 1711.79,-1494.9511 -3.93,-6.812 14.672,-8.384 q 18.078,-9.956 18.078,-31.702 0,-40.61 -61.832,-40.61 h -24.104 v 175.54 h -7.86 v -183.4 h 31.964 q 34.584,0 52.138,12.838 17.554,12.576 17.554,35.632 0,26.2 -22.008,38.514 z"
         id="path51" /></g><g
       transform="translate(628.2705,897.4434)"
       id="g56"><path
         id="path58"
         style="fill:none;stroke:#ffffff;stroke-width:1;stroke-linecap:butt;stroke-linejoin:miter;stroke-miterlimit:10;stroke-dasharray:none;stroke-opacity:1"
         d="M 0,0 H -7.859 V -83.84 H -102.18 V 0 h -7.859 v -183.4 h 7.859 v 91.7 h 94.321 v -91.7 H 0 Z" /></g><g
       transform="translate(774.2041,817.7954)"
       id="g60"><path
         id="path62"
         style="fill:none;stroke:#ffffff;stroke-width:1;stroke-linecap:butt;stroke-linejoin:miter;stroke-miterlimit:10;stroke-dasharray:none;stroke-opacity:1"
         d="M 0,0 H -58.688 L 21.484,79.648 H -94.058 v -183.4 H 15.458 v 7.86 H -86.198 V 71.788 H 2.358 L -77.814,-7.86 H 0 Z" /></g><g
       transform="translate(1018.3838,897.4434)"
       id="g64"><path
         id="path66"
         style="fill:none;stroke:#ffffff;stroke-width:1;stroke-linecap:butt;stroke-linejoin:miter;stroke-miterlimit:10;stroke-dasharray:none;stroke-opacity:1"
         d="M 0,0 H -7.859 V -83.84 H -102.18 V 0 h -7.859 v -183.4 h 7.859 v 91.7 h 94.321 v -91.7 H 0 Z" /></g><g
       transform="translate(1074.9756,714.0435)"
       id="g68"><path
         id="path70"
         style="fill:none;stroke:#ffffff;stroke-width:1;stroke-linecap:butt;stroke-linejoin:miter;stroke-miterlimit:10;stroke-dasharray:none;stroke-opacity:1"
         d="M 0,0 H 107.682 L 40.872,183.662 -25.938,0 h 8.383 L 40.872,160.606 96.416,7.86 H 0 Z" /></g></g></svg>
